<svg xmlns="http://www.w3.org/2000/svg" xmlns:xlink="http://www.w3.org/1999/xlink" width="2000" zoomAndPan="magnify" viewBox="0 0 1500 1499.999933" height="2000" preserveAspectRatio="xMidYMid meet" version="1.0"><defs><clipPath id="c46cd1710d"><path d="M 614 549 L 821 549 L 821 923 L 614 923 Z M 614 549 " clip-rule="nonzero"/></clipPath><clipPath id="53e5484604"><path d="M 616.925781 547.742188 L 834.980469 914.574219 L 818.21875 924.539062 L 600.160156 557.707031 Z M 616.925781 547.742188 " clip-rule="nonzero"/></clipPath><clipPath id="43259d4616"><path d="M 616.925781 547.742188 L 834.980469 914.574219 L 818.21875 924.539062 L 600.160156 557.707031 Z M 616.925781 547.742188 " clip-rule="nonzero"/></clipPath><clipPath id="4e87e5d191"><path d="M 843 737 L 971 737 L 971 967 L 843 967 Z M 843 737 " clip-rule="nonzero"/></clipPath><clipPath id="a0aadb74c3"><path d="M 845.226562 736.050781 L 979.355469 961.695312 L 969.039062 967.824219 L 834.910156 742.179688 Z M 845.226562 736.050781 " clip-rule="nonzero"/></clipPath><clipPath id="6b658feafd"><path d="M 845.226562 736.050781 L 979.355469 961.695312 L 969.039062 967.824219 L 834.910156 742.179688 Z M 845.226562 736.050781 " clip-rule="nonzero"/></clipPath><clipPath id="6121b053ee"><path d="M 760 358 L 898 358 L 898 607 L 760 607 Z M 760 358 " clip-rule="nonzero"/></clipPath><clipPath id="33cfb4fbaa"><path d="M 761.941406 356.796875 L 907.1875 601.136719 L 895.582031 608.035156 L 750.339844 363.695312 Z M 761.941406 356.796875 " clip-rule="nonzero"/></clipPath><clipPath id="d9b4c04579"><path d="M 761.941406 356.796875 L 907.1875 601.136719 L 895.582031 608.035156 L 750.339844 363.695312 Z M 761.941406 356.796875 " clip-rule="nonzero"/></clipPath></defs><g clip-path="url(#c46cd1710d)"><g clip-path="url(#53e5484604)"><g clip-path="url(#43259d4616)"><path fill="#0097b2" d="M 815.902344 921.027344 C 808.605469 908.75 804.507812 894.488281 800.542969 880.699219 C 796.667969 867.21875 792.664062 853.277344 785.699219 841.558594 C 778.734375 829.84375 768.402344 819.660156 758.410156 809.816406 C 748.1875 799.746094 737.621094 789.335938 730.320312 777.058594 C 723.023438 764.777344 718.925781 750.519531 714.964844 736.730469 C 711.089844 723.25 707.082031 709.308594 700.117188 697.589844 C 693.152344 685.871094 682.820312 675.691406 672.828125 665.847656 C 662.609375 655.777344 652.039062 645.363281 644.742188 633.085938 C 637.445312 620.808594 633.347656 606.550781 629.382812 592.761719 C 625.507812 579.277344 621.503906 565.339844 614.539062 553.621094 C 613.824219 552.421875 614.21875 550.871094 615.417969 550.15625 C 616.617188 549.445312 618.167969 549.839844 618.882812 551.039062 C 626.179688 563.316406 630.277344 577.574219 634.242188 591.363281 C 638.117188 604.847656 642.121094 618.789062 649.085938 630.503906 C 656.050781 642.222656 666.382812 652.402344 676.375 662.246094 C 686.597656 672.316406 697.164062 682.730469 704.464844 695.007812 C 711.761719 707.285156 715.859375 721.542969 719.820312 735.335938 C 723.695312 748.816406 727.703125 762.757812 734.667969 774.472656 C 741.632812 786.191406 751.964844 796.371094 761.957031 806.214844 C 772.175781 816.285156 782.746094 826.699219 790.042969 838.976562 C 797.339844 851.253906 801.4375 865.511719 805.402344 879.304688 C 809.277344 892.785156 813.28125 906.726562 820.246094 918.441406 C 820.960938 919.644531 820.566406 921.195312 819.367188 921.90625 C 818.167969 922.621094 816.613281 922.226562 815.902344 921.027344 Z M 815.902344 921.027344 " fill-opacity="1" fill-rule="nonzero"/></g></g></g><g clip-path="url(#4e87e5d191)"><g clip-path="url(#a0aadb74c3)"><g clip-path="url(#6b658feafd)"><path fill="#0097b2" d="M 967.566406 965.558594 C 963.082031 958.011719 960.5625 949.246094 958.125 940.765625 C 955.742188 932.480469 953.28125 923.910156 949 916.707031 C 944.71875 909.503906 938.367188 903.246094 932.222656 897.191406 C 925.941406 891.003906 919.445312 884.601562 914.957031 877.054688 C 910.46875 869.507812 907.953125 860.742188 905.515625 852.261719 C 903.132812 843.976562 900.671875 835.40625 896.390625 828.203125 C 892.109375 821 885.757812 814.742188 879.613281 808.6875 C 873.332031 802.5 866.832031 796.097656 862.347656 788.550781 C 857.859375 781 855.339844 772.234375 852.90625 763.757812 C 850.523438 755.472656 848.0625 746.902344 843.78125 739.699219 C 843.339844 738.960938 843.582031 738.007812 844.320312 737.570312 C 845.058594 737.128906 846.011719 737.371094 846.449219 738.109375 C 850.9375 745.65625 853.457031 754.421875 855.890625 762.902344 C 858.273438 771.1875 860.738281 779.757812 865.019531 786.960938 C 869.300781 794.164062 875.652344 800.421875 881.792969 806.476562 C 888.078125 812.664062 894.574219 819.066406 899.0625 826.613281 C 903.546875 834.160156 906.066406 842.929688 908.503906 851.40625 C 910.882812 859.691406 913.347656 868.261719 917.628906 875.464844 C 921.910156 882.667969 928.261719 888.925781 934.402344 894.980469 C 940.6875 901.171875 947.183594 907.570312 951.671875 915.117188 C 956.15625 922.667969 958.675781 931.433594 961.113281 939.910156 C 963.492188 948.195312 965.957031 956.765625 970.238281 963.96875 C 970.675781 964.707031 970.433594 965.660156 969.695312 966.101562 C 968.957031 966.539062 968.003906 966.296875 967.566406 965.558594 Z M 967.566406 965.558594 " fill-opacity="1" fill-rule="nonzero"/></g></g></g><g clip-path="url(#6121b053ee)"><g clip-path="url(#33cfb4fbaa)"><g clip-path="url(#d9b4c04579)"><path fill="#0097b2" d="M 894.429688 605.34375 C 889.570312 597.171875 886.839844 587.675781 884.203125 578.492188 C 881.625 569.515625 878.957031 560.234375 874.316406 552.429688 C 869.679688 544.628906 862.800781 537.851562 856.144531 531.292969 C 849.339844 524.589844 842.304688 517.65625 837.445312 509.480469 C 832.585938 501.304688 829.855469 491.808594 827.21875 482.628906 C 824.636719 473.648438 821.96875 464.367188 817.332031 456.566406 C 812.695312 448.761719 805.8125 441.984375 799.160156 435.429688 C 792.355469 428.722656 785.316406 421.789062 780.457031 413.613281 C 775.597656 405.4375 772.871094 395.945312 770.230469 386.761719 C 767.652344 377.785156 764.984375 368.503906 760.347656 360.699219 C 759.871094 359.902344 760.132812 358.867188 760.933594 358.394531 C 761.730469 357.917969 762.765625 358.179688 763.238281 358.980469 C 768.097656 367.15625 770.828125 376.648438 773.464844 385.832031 C 776.046875 394.808594 778.714844 404.09375 783.351562 411.894531 C 787.988281 419.695312 794.871094 426.476562 801.523438 433.03125 C 808.328125 439.738281 815.367188 446.671875 820.226562 454.84375 C 825.085938 463.019531 827.8125 472.515625 830.453125 481.699219 C 833.03125 490.675781 835.699219 499.957031 840.335938 507.761719 C 844.976562 515.5625 851.855469 522.339844 858.507812 528.898438 C 865.3125 535.601562 872.351562 542.535156 877.210938 550.710938 C 882.070312 558.886719 884.800781 568.382812 887.4375 577.5625 C 890.015625 586.539062 892.683594 595.824219 897.324219 603.625 C 897.796875 604.425781 897.535156 605.457031 896.734375 605.933594 C 895.9375 606.40625 894.90625 606.144531 894.429688 605.34375 Z M 894.429688 605.34375 " fill-opacity="1" fill-rule="nonzero"/></g></g></g></svg>